<svg width="16" height="16" viewBox="0 0 16 16" fill="none" xmlns="http://www.w3.org/2000/svg">
<path d="M8.21289 9.66757C7.92887 9.95154 7.92887 10.412 8.21289 10.6961C8.35491 10.8381 8.54099 10.9091 8.72717 10.9091C8.91325 10.9091 9.09943 10.8381 9.2414 10.6961L11.4231 8.51441C11.4399 8.49759 11.4559 8.47989 11.471 8.46152C11.4744 8.45744 11.4772 8.45298 11.4805 8.44881C11.4919 8.43432 11.5032 8.41972 11.5135 8.40435C11.5161 8.40033 11.5184 8.39606 11.5209 8.39204C11.5312 8.37609 11.5412 8.35994 11.5502 8.34321C11.5517 8.3403 11.5529 8.33725 11.5544 8.33429C11.5639 8.31616 11.5728 8.29778 11.5807 8.27878C11.5815 8.27684 11.582 8.27485 11.5828 8.27291C11.5909 8.25298 11.5983 8.23272 11.6046 8.21192C11.6053 8.20969 11.6057 8.20736 11.6064 8.20513C11.6123 8.18481 11.6178 8.16421 11.6219 8.14317C11.6231 8.1373 11.6236 8.13129 11.6247 8.12537C11.6277 8.10792 11.6307 8.09046 11.6325 8.07262C11.6349 8.04857 11.6362 8.02438 11.6362 8.00004C11.6362 7.97565 11.6349 7.95146 11.6325 7.92746C11.6307 7.90947 11.6277 7.89187 11.6246 7.87427C11.6235 7.8685 11.6231 7.86263 11.6219 7.85691C11.6177 7.83573 11.6122 7.81502 11.6062 7.79456C11.6056 7.79243 11.6053 7.7903 11.6046 7.78816C11.5982 7.76722 11.5907 7.74685 11.5826 7.72673C11.5818 7.72499 11.5814 7.7231 11.5806 7.72135C11.5726 7.70225 11.5637 7.68373 11.5542 7.6655C11.5528 7.66268 11.5516 7.65973 11.5501 7.65696C11.541 7.64009 11.531 7.6239 11.5207 7.60785C11.5181 7.60387 11.516 7.5997 11.5134 7.59578C11.5031 7.58041 11.4918 7.56572 11.4804 7.55122C11.4771 7.54705 11.4743 7.54264 11.4709 7.53856C11.4558 7.52019 11.4398 7.50249 11.423 7.48567L9.2413 5.30396C8.95733 5.01994 8.49682 5.01994 8.2128 5.30396C7.92878 5.58798 7.92878 6.04844 8.2128 6.33246L9.15306 7.27277H0.727268C0.325622 7.27277 0 7.59839 0 8.00004C0 8.40169 0.325622 8.72731 0.727268 8.72731H9.15316L8.21289 9.66757Z" fill="#ECDFCC"/>
<path d="M10.0509 2.0509C8.0657 2.0509 6.21868 3.03572 5.11018 4.68521C4.88613 5.01859 4.97476 5.47047 5.30814 5.69447C5.64152 5.91852 6.09339 5.82989 6.31739 5.49651C7.15525 4.24977 8.55098 3.50544 10.0509 3.50544C12.5292 3.50544 14.5455 5.52172 14.5455 8.00001C14.5455 10.4783 12.5292 12.4946 10.0509 12.4946C8.55544 12.4946 7.16195 11.7536 6.32345 10.5124C6.09858 10.1796 5.64651 10.0921 5.31367 10.3169C4.98087 10.5418 4.89331 10.9939 5.11818 11.3267C6.2276 12.9688 8.07161 13.9491 10.0509 13.9491C13.3313 13.9491 16 11.2803 16 8.00001C16 4.71969 13.3312 2.0509 10.0509 2.0509Z" fill="#ECDFCC"/>
</svg>
