<svg width="20" height="20" viewBox="0 0 20 20" fill="none" xmlns="http://www.w3.org/2000/svg">
<g clip-path="url(#clip0_11_34)">
<path d="M3.14875 3.89375C3.38988 3.33125 3.79087 2.85194 4.30196 2.51528C4.81305 2.17863 5.41175 1.99946 6.02375 2H13.9762C15.2262 2 16.3562 2.745 16.8487 3.89375L17.8387 6.20375C17.9325 6.4225 18.1012 6.6025 18.3137 6.70875C18.9387 7.02125 19.3825 7.6025 19.52 8.28625L19.9387 10.385C19.9804 10.5867 20.0008 10.7908 20 10.9975V11.5138C20 12.5313 19.5125 13.4425 18.75 14.01V16.375C18.75 16.5408 18.6842 16.6997 18.5669 16.8169C18.4497 16.9342 18.2908 17 18.125 17H15.625C15.4592 17 15.3003 16.9342 15.1831 16.8169C15.0658 16.6997 15 16.5408 15 16.375V14.7025C13.385 14.7625 11.5688 14.8125 10 14.8125C8.43125 14.8125 6.615 14.7625 5 14.7025V16.375C5 16.5408 4.93415 16.6997 4.81694 16.8169C4.69973 16.9342 4.54076 17 4.375 17H1.875C1.70924 17 1.55027 16.9342 1.43306 16.8169C1.31585 16.6997 1.25 16.5408 1.25 16.375V14.01C0.4875 13.4425 0 12.5313 0 11.5138V10.9975C0.000209788 10.7918 0.020726 10.5867 0.06125 10.385L0.48 8.285C0.6175 7.6025 1.06125 7.02 1.685 6.70875C1.89896 6.60268 2.06789 6.42355 2.16125 6.20375L3.15125 3.89375H3.14875ZM3.74875 12C4.08027 12 4.39821 11.8683 4.63263 11.6339C4.86705 11.3995 4.99875 11.0815 4.99875 10.75C4.99875 10.4185 4.86705 10.1005 4.63263 9.86612C4.39821 9.6317 4.08027 9.5 3.74875 9.5C3.41723 9.5 3.09929 9.6317 2.86487 9.86612C2.63045 10.1005 2.49875 10.4185 2.49875 10.75C2.49875 11.0815 2.63045 11.3995 2.86487 11.6339C3.09929 11.8683 3.41723 12 3.74875 12ZM16.2487 12C16.5803 12 16.8982 11.8683 17.1326 11.6339C17.3671 11.3995 17.4987 11.0815 17.4987 10.75C17.4987 10.4185 17.3671 10.1005 17.1326 9.86612C16.8982 9.6317 16.5803 9.5 16.2487 9.5C15.9172 9.5 15.5993 9.6317 15.3649 9.86612C15.1304 10.1005 14.9987 10.4185 14.9987 10.75C14.9987 11.0815 15.1304 11.3995 15.3649 11.6339C15.5993 11.8683 15.9172 12 16.2487 12ZM7.49875 9.5C7.16723 9.5 6.84929 9.6317 6.61487 9.86612C6.38045 10.1005 6.24875 10.4185 6.24875 10.75C6.24875 11.0815 6.38045 11.3995 6.61487 11.6339C6.84929 11.8683 7.16723 12 7.49875 12H12.4987C12.8303 12 13.1482 11.8683 13.3826 11.6339C13.6171 11.3995 13.7487 11.0815 13.7487 10.75C13.7487 10.4185 13.6171 10.1005 13.3826 9.86612C13.1482 9.6317 12.8303 9.5 12.4987 9.5H7.49875ZM3.63125 5.98625C3.58239 6.08707 3.56096 6.19898 3.56912 6.31072C3.57728 6.42245 3.61475 6.53006 3.67774 6.62271C3.74073 6.71536 3.82702 6.78977 3.92792 6.83845C4.02883 6.88713 4.14078 6.90836 4.2525 6.9C5.39 6.80875 8.44 6.6875 9.99875 6.6875C11.5575 6.6875 14.6087 6.80875 15.745 6.9C15.8567 6.90836 15.9687 6.88713 16.0696 6.83845C16.1705 6.78977 16.2568 6.71536 16.3198 6.62271C16.3828 6.53006 16.4202 6.42245 16.4284 6.31072C16.4365 6.19898 16.4151 6.08707 16.3662 5.98625L15.1712 3.595C15.1193 3.49132 15.0395 3.40413 14.9408 3.34321C14.8422 3.28228 14.7285 3.25001 14.6125 3.25H5.385C5.26903 3.25001 5.15534 3.28228 5.05666 3.34321C4.95799 3.40413 4.87821 3.49132 4.82625 3.595L3.63125 5.98625Z" fill="#697565"/>
</g>
<defs>
<clipPath id="clip0_11_34">
<rect width="20" height="20" fill="white"/>
</clipPath>
</defs>
</svg>
