<svg width="20" height="20" viewBox="0 0 20 20" fill="none" xmlns="http://www.w3.org/2000/svg">
<path fill-rule="evenodd" clip-rule="evenodd" d="M5 4.9999C5.00009 4.03769 5.27782 3.09593 5.79987 2.28764C6.32191 1.47935 7.0661 0.838868 7.94313 0.443036C8.82016 0.0472048 9.79278 -0.0871568 10.7443 0.0560737C11.6958 0.199304 12.5857 0.614043 13.3074 1.25052C14.029 1.887 14.5517 2.71819 14.8126 3.64435C15.0736 4.5705 15.0617 5.55228 14.7786 6.47189C14.4954 7.39149 13.9529 8.20985 13.2161 8.82877C12.4794 9.44769 11.5797 9.84088 10.625 9.96115V16.8749C10.625 17.0407 10.5592 17.1996 10.4419 17.3168C10.3247 17.4341 10.1658 17.4999 10 17.4999C9.83424 17.4999 9.67527 17.4341 9.55806 17.3168C9.44085 17.1996 9.375 17.0407 9.375 16.8749V9.9624C8.16621 9.81011 7.05461 9.2217 6.24902 8.3077C5.44343 7.39369 4.99928 6.21825 5 4.9999ZM8.11625 15.7174C8.14336 15.8808 8.10447 16.0483 8.00814 16.1831C7.9118 16.3179 7.7659 16.4089 7.6025 16.4362C6.7125 16.5837 6.0025 16.8049 5.53375 17.0524C5.3613 17.1348 5.20474 17.2469 5.07125 17.3837C5.04098 17.4166 5.01685 17.4547 5 17.4962V17.4999L5.0025 17.5099L5.0225 17.5512C5.0715 17.6238 5.13285 17.6872 5.20375 17.7387C5.41 17.9012 5.7475 18.0762 6.22 18.2324C7.15875 18.5449 8.495 18.7499 10 18.7499C11.505 18.7499 12.8413 18.5462 13.78 18.2324C14.2525 18.0749 14.59 17.9012 14.7962 17.7387C14.8676 17.6873 14.9294 17.6239 14.9788 17.5512L14.9975 17.5099L15 17.4999V17.4949C14.9832 17.4535 14.959 17.4154 14.9288 17.3824C14.7952 17.2461 14.6386 17.1344 14.4662 17.0524C13.9963 16.8049 13.2875 16.5837 12.3975 16.4362C12.3146 16.4249 12.2348 16.3972 12.1628 16.3545C12.0908 16.3119 12.0282 16.2552 11.9785 16.1879C11.9288 16.1206 11.8932 16.0439 11.8737 15.9626C11.8541 15.8812 11.8512 15.7968 11.8649 15.7143C11.8786 15.6317 11.9088 15.5528 11.9536 15.4821C11.9984 15.4115 12.0569 15.3505 12.1257 15.3029C12.1945 15.2553 12.2721 15.222 12.354 15.2049C12.4359 15.1879 12.5204 15.1874 12.6025 15.2037C13.565 15.3624 14.4175 15.6137 15.0487 15.9462C15.625 16.2499 16.25 16.7499 16.25 17.4999C16.25 18.0324 15.925 18.4399 15.57 18.7212C15.2075 19.0062 14.72 19.2374 14.175 19.4187C13.0775 19.7849 11.6013 19.9999 10 19.9999C8.39875 19.9999 6.9225 19.7849 5.825 19.4187C5.28 19.2374 4.7925 19.0062 4.43 18.7212C4.075 18.4399 3.75 18.0324 3.75 17.4999C3.75 16.7512 4.375 16.2499 4.95125 15.9462C5.5825 15.6137 6.435 15.3624 7.3975 15.2037C7.56093 15.1765 7.72844 15.2154 7.86321 15.3118C7.99798 15.4081 8.08899 15.554 8.11625 15.7174Z" fill="#697565"/>
</svg>
