<svg width="20" height="20" viewBox="0 0 20 20" fill="none" xmlns="http://www.w3.org/2000/svg">
<g clip-path="url(#clip0_11_17)">
<path fill-rule="evenodd" clip-rule="evenodd" d="M2.35684 0.637713C2.57556 0.419324 2.83819 0.249911 3.12733 0.1407C3.41648 0.03149 3.72553 -0.0150237 4.03401 0.00424152C4.34249 0.0235068 4.64336 0.108111 4.91667 0.252448C5.18998 0.396785 5.42949 0.597558 5.61934 0.841463L7.86309 3.72396C8.27434 4.25271 8.41934 4.94146 8.25684 5.59146L7.57309 8.32896C7.53798 8.47076 7.54002 8.61922 7.57899 8.76C7.61796 8.90079 7.69256 9.02915 7.79559 9.13271L10.8668 12.204C10.9705 12.3072 11.0991 12.3819 11.2401 12.4209C11.3812 12.4599 11.5299 12.4618 11.6718 12.4265L14.4081 11.7427C14.7289 11.663 15.0636 11.657 15.387 11.7252C15.7105 11.7934 16.0143 11.934 16.2756 12.1365L19.1581 14.379C20.1943 15.1852 20.2893 16.7165 19.3618 17.6427L18.0693 18.9352C17.1443 19.8602 15.7618 20.2665 14.4731 19.8127C11.1739 18.6534 8.17876 16.7649 5.71059 14.2877C3.23355 11.8199 1.34503 8.82518 0.185589 5.52646C-0.266911 4.23896 0.139339 2.85521 1.06434 1.93021L2.35684 0.637713Z" fill="#697565"/>
</g>
<defs>
<clipPath id="clip0_11_17">
<rect width="20" height="20" fill="white"/>
</clipPath>
</defs>
</svg>
