<svg width="20" height="20" viewBox="0 0 20 20" fill="none" xmlns="http://www.w3.org/2000/svg">
<path d="M19.23 7.64377C19.2928 7.58273 19.3417 7.50878 19.3732 7.42703C19.4048 7.34529 19.4182 7.25767 19.4126 7.17023C19.407 7.08279 19.3826 6.9976 19.3409 6.92052C19.2992 6.84345 19.2413 6.77632 19.1712 6.72377C16.5064 4.78589 13.2949 3.74457 9.99997 3.75002C6.57372 3.75002 3.40372 4.85252 0.828723 6.72377C0.758529 6.77623 0.700541 6.84328 0.658755 6.9203C0.616968 6.99733 0.592376 7.0825 0.586673 7.16994C0.580971 7.25739 0.594292 7.34503 0.62572 7.42683C0.657149 7.50863 0.705937 7.58264 0.768723 7.64377C0.87822 7.75092 1.02204 7.81595 1.17482 7.82739C1.32759 7.83882 1.4795 7.79593 1.60372 7.70627C4.04773 5.94266 6.98609 4.99558 9.99997 5.00002C13.1337 5.00002 16.0337 6.00252 18.395 7.70502C18.6512 7.89002 19.0075 7.86752 19.23 7.64377Z" fill="#697565"/>
<path d="M16.2581 10.8388C16.3225 10.7766 16.3723 10.7009 16.4038 10.6171C16.4352 10.5333 16.4477 10.4436 16.4401 10.3544C16.4326 10.2652 16.4053 10.1789 16.3602 10.1015C16.315 10.0242 16.2533 9.95796 16.1794 9.90751C14.2572 8.65933 12.0137 7.99663 9.72186 8.00001C7.34061 8.00001 5.12186 8.70001 3.26436 9.90751C3.19005 9.95766 3.12792 10.0238 3.08254 10.1011C3.03716 10.1785 3.00969 10.265 3.00213 10.3543C2.99458 10.4436 3.00714 10.5335 3.03889 10.6173C3.07064 10.7012 3.12078 10.7768 3.18561 10.8388C3.29211 10.9427 3.43079 11.0074 3.57888 11.0221C3.72697 11.0369 3.87568 11.0009 4.00061 10.92C5.70814 9.82634 7.69411 9.24664 9.72186 9.25001C11.7492 9.24688 13.7347 9.82657 15.4419 10.92C15.6994 11.085 16.0419 11.055 16.2581 10.8388ZM13.5294 13.5675C13.8119 13.285 13.7606 12.8113 13.4044 12.63C12.2633 12.0508 11.0015 11.7493 9.72186 11.75C8.39686 11.75 7.14436 12.0675 6.03936 12.63C5.68311 12.8113 5.63186 13.285 5.91436 13.5675L5.93311 13.5863C6.13311 13.7863 6.44186 13.8238 6.69686 13.6988C7.63872 13.2382 8.67344 12.9992 9.72186 13C10.8069 13 11.8344 13.2513 12.7469 13.7C13.0006 13.825 13.3094 13.7875 13.5094 13.5863L13.5294 13.5675ZM11.0469 16.05C11.2919 15.805 11.2944 15.4 10.9969 15.225C10.611 14.996 10.1706 14.8751 9.72186 14.875C9.27315 14.8751 8.83275 14.996 8.44686 15.225C8.14936 15.4 8.15186 15.805 8.39686 16.05L9.27936 16.9325C9.39656 17.0497 9.55551 17.1155 9.72123 17.1155C9.88696 17.1155 10.0459 17.0497 10.1631 16.9325L11.0469 16.05Z" fill="#697565"/>
</svg>
